<?xml version="1.0" encoding="UTF-8" standalone="no"?>
<!DOCTYPE svg PUBLIC "-//W3C//DTD SVG 1.1//EN"
 "http://www.w3.org/Graphics/SVG/1.1/DTD/svg11.dtd">
<!-- Generated by graphviz version 2.38.0 (20140413.2041)
 -->
<!-- Title: G Pages: 1 -->
<svg width="325pt" height="260pt"
 viewBox="0.00 0.00 324.94 260.00" xmlns="http://www.w3.org/2000/svg" xmlns:xlink="http://www.w3.org/1999/xlink">
<g id="graph0" class="graph" transform="scale(1 1) rotate(0) translate(4 256)">
<title>G</title>
<polygon fill="white" stroke="none" points="-4,4 -4,-256 320.942,-256 320.942,4 -4,4"/>
<!-- mainメインプ00 -->
<g id="node1" class="node"><title>mainメインプ00</title>
<ellipse fill="none" stroke="black" cx="168.445" cy="-234" rx="77.1866" ry="18"/>
<text text-anchor="middle" x="168.445" y="-230.3" font-family="Mgen+ 1cp regular" font-size="14.00">mainメインプ00</text>
</g>
<!-- parse -->
<g id="node2" class="node"><title>parse</title>
<ellipse fill="none" stroke="black" cx="121.445" cy="-162" rx="33.2948" ry="18"/>
<text text-anchor="middle" x="121.445" y="-158.3" font-family="Mgen+ 1cp regular" font-size="14.00">parse</text>
</g>
<!-- mainメインプ00&#45;&gt;parse -->
<g id="edge1" class="edge"><title>mainメインプ00&#45;&gt;parse</title>
<path fill="none" stroke="black" d="M157.067,-216.055C151.385,-207.592 144.401,-197.19 138.126,-187.845"/>
<polygon fill="black" stroke="black" points="140.874,-185.658 132.394,-179.307 135.062,-189.56 140.874,-185.658"/>
</g>
<!-- init -->
<g id="node4" class="node"><title>init</title>
<ellipse fill="none" stroke="black" cx="60.4446" cy="-90" rx="27" ry="18"/>
<text text-anchor="middle" x="60.4446" y="-86.3" font-family="Mgen+ 1cp regular" font-size="14.00">init</text>
</g>
<!-- mainメインプ00&#45;&gt;init -->
<g id="edge3" class="edge"><title>mainメインプ00&#45;&gt;init</title>
<path fill="none" stroke="black" d="M129.519,-218.436C111.684,-209.854 91.8092,-197.246 79.4446,-180 66.533,-161.991 62.0661,-137.001 60.6662,-118.085"/>
<polygon fill="black" stroke="black" points="64.1579,-117.829 60.1627,-108.016 57.1667,-118.178 64.1579,-117.829"/>
</g>
<!-- cleanup -->
<g id="node5" class="node"><title>cleanup</title>
<ellipse fill="none" stroke="black" cx="215.445" cy="-162" rx="42.7926" ry="18"/>
<text text-anchor="middle" x="215.445" y="-158.3" font-family="Mgen+ 1cp regular" font-size="14.00">cleanup</text>
</g>
<!-- mainメインプ00&#45;&gt;cleanup -->
<g id="edge4" class="edge"><title>mainメインプ00&#45;&gt;cleanup</title>
<path fill="none" stroke="black" d="M179.822,-216.055C185.422,-207.715 192.287,-197.491 198.49,-188.252"/>
<polygon fill="black" stroke="black" points="201.503,-190.042 204.172,-179.789 195.692,-186.14 201.503,-190.042"/>
</g>
<!-- printf -->
<g id="node7" class="node"><title>printf</title>
<ellipse fill="none" stroke="black" cx="284.445" cy="-18" rx="32.4942" ry="18"/>
<text text-anchor="middle" x="284.445" y="-14.3" font-family="Mgen+ 1cp regular" font-size="14.00">printf</text>
</g>
<!-- mainメインプ00&#45;&gt;printf -->
<g id="edge8" class="edge"><title>mainメインプ00&#45;&gt;printf</title>
<path fill="none" stroke="black" d="M214.07,-219.406C233.68,-211.186 254.93,-198.602 267.445,-180 294.485,-139.808 292.822,-80.7613 288.847,-46.4636"/>
<polygon fill="black" stroke="black" points="292.279,-45.7133 287.509,-36.2529 285.338,-46.623 292.279,-45.7133"/>
</g>
<!-- execute -->
<g id="node3" class="node"><title>execute</title>
<ellipse fill="none" stroke="black" cx="166.445" cy="-90" rx="42.4939" ry="18"/>
<text text-anchor="middle" x="166.445" y="-86.3" font-family="Mgen+ 1cp regular" font-size="14.00">execute</text>
</g>
<!-- parse&#45;&gt;execute -->
<g id="edge2" class="edge"><title>parse&#45;&gt;execute</title>
<path fill="none" stroke="black" d="M131.882,-144.765C137.312,-136.317 144.074,-125.799 150.173,-116.312"/>
<polygon fill="black" stroke="black" points="153.288,-117.938 155.752,-107.633 147.4,-114.153 153.288,-117.938"/>
</g>
<!-- make_string -->
<g id="node6" class="node"><title>make_string</title>
<ellipse fill="none" stroke="black" cx="60.4446" cy="-18" rx="60.3893" ry="18"/>
<text text-anchor="middle" x="60.4446" y="-14.3" font-family="Mgen+ 1cp regular" font-size="14.00">make_string</text>
</g>
<!-- execute&#45;&gt;make_string -->
<g id="edge5" class="edge"><title>execute&#45;&gt;make_string</title>
<path fill="none" stroke="black" d="M144.481,-74.496C129.506,-64.6065 109.426,-51.3463 92.65,-40.2677"/>
<polygon fill="black" stroke="black" points="94.4962,-37.2926 84.2228,-34.7026 90.6387,-43.1338 94.4962,-37.2926"/>
</g>
<!-- execute&#45;&gt;printf -->
<g id="edge6" class="edge"><title>execute&#45;&gt;printf</title>
<path fill="none" stroke="black" d="M190.04,-75.0027C208.471,-64.0694 234.215,-48.7971 254.165,-36.9623"/>
<polygon fill="black" stroke="black" points="256.062,-39.9068 262.877,-31.7945 252.49,-33.8864 256.062,-39.9068"/>
</g>
<!-- compare -->
<g id="node8" class="node"><title>compare</title>
<ellipse fill="none" stroke="black" cx="185.445" cy="-18" rx="46.2923" ry="18"/>
<text text-anchor="middle" x="185.445" y="-14.3" font-family="Mgen+ 1cp regular" font-size="14.00">compare</text>
</g>
<!-- execute&#45;&gt;compare -->
<g id="edge9" class="edge"><title>execute&#45;&gt;compare</title>
<path fill="none" stroke="black" d="M171.044,-72.055C173.16,-64.2609 175.722,-54.8219 178.095,-46.0789"/>
<polygon fill="black" stroke="black" points="181.514,-46.843 180.756,-36.2753 174.758,-45.0093 181.514,-46.843"/>
</g>
<!-- init&#45;&gt;make_string -->
<g id="edge7" class="edge"><title>init&#45;&gt;make_string</title>
<path fill="none" stroke="black" d="M60.4446,-71.6966C60.4446,-63.9827 60.4446,-54.7125 60.4446,-46.1124"/>
<polygon fill="black" stroke="black" points="63.9447,-46.1043 60.4446,-36.1043 56.9447,-46.1044 63.9447,-46.1043"/>
</g>
</g>
</svg>
