<?xml version="1.0" encoding="UTF-8" standalone="no"?><svg xmlns="http://www.w3.org/2000/svg" xmlns:xlink="http://www.w3.org/1999/xlink" contentScriptType="application/ecmascript" contentStyleType="text/css" height="207px" preserveAspectRatio="none" style="width:275px;height:207px;" version="1.1" viewBox="0 0 275 207" width="275px" zoomAndPan="magnify"><defs><filter height="300%" id="f18zo66rsqntb7" width="300%" x="-1" y="-1"><feGaussianBlur result="blurOut" stdDeviation="2.0"/><feColorMatrix in="blurOut" result="blurOut2" type="matrix" values="0 0 0 0 0 0 0 0 0 0 0 0 0 0 0 0 0 0 .4 0"/><feOffset dx="4.0" dy="4.0" in="blurOut2" result="blurOut3"/><feBlend in="SourceGraphic" in2="blurOut3" mode="normal"/></filter></defs><g><!--class クラスAプ--><rect fill="#FEFECE" filter="url(#f18zo66rsqntb7)" height="64.3389" id="クラスAプ" style="stroke: #A80036; stroke-width: 1.5;" width="84" x="6" y="8"/><ellipse cx="21" cy="24" fill="#ADD1B2" rx="11" ry="11" style="stroke: #A80036; stroke-width: 1.0;"/><path d="M23.7031,29.4375 Q22.7813,30.3594 20.5156,30.3594 Q19.25,30.3594 18.3281,29.4375 Q16.6719,27.7813 16.6719,24.25 Q16.6719,20.1406 18.4531,18.3438 Q19.3906,17.4219 20.5781,17.4219 Q22.8438,17.4219 23.5781,18.1406 Q24.9688,19.5469 24.9063,21.9375 L22.4375,21.9375 Q22.375,19.8125 21.6406,19.0781 Q21.25,18.6719 20.5781,18.6719 Q20.5781,18.6719 20.5156,19.1406 Q19.1875,20.4688 19.1875,24.125 Q19.1875,27.3125 20.3281,28.4375 Q20.8594,28.9688 20.8594,28.9688 Q21.1094,28.9688 21.6406,28.4375 Q22.3125,27.7813 22.375,25.3906 L24.9688,25.3906 Q24.7656,28.375 23.7031,29.4375 Z "/><text fill="#000000" font-family="Mgen+ 1cp regular" font-size="12" lengthAdjust="spacingAndGlyphs" textLength="52" x="35" y="29.6074">クラスAプ</text><line style="stroke: #A80036; stroke-width: 1.5;" x1="7" x2="89" y1="40" y2="40"/><line style="stroke: #A80036; stroke-width: 1.5;" x1="7" x2="89" y1="48" y2="48"/><ellipse cx="17" cy="61.6694" fill="#84BE84" rx="3" ry="3" style="stroke: #038048; stroke-width: 1.0;"/><text fill="#000000" font-family="Mgen+ 1cp regular" font-size="11" lengthAdjust="spacingAndGlyphs" textLength="52" x="26" y="65.3096">メソッド1()</text><!--class クラスB00--><rect fill="#FEFECE" filter="url(#f18zo66rsqntb7)" height="64.3389" id="クラスB00" style="stroke: #A80036; stroke-width: 1.5;" width="85" x="73.5" y="132"/><ellipse cx="88.5" cy="148" fill="#ADD1B2" rx="11" ry="11" style="stroke: #A80036; stroke-width: 1.0;"/><path d="M91.2031,153.4375 Q90.2813,154.3594 88.0156,154.3594 Q86.75,154.3594 85.8281,153.4375 Q84.1719,151.7813 84.1719,148.25 Q84.1719,144.1406 85.9531,142.3438 Q86.8906,141.4219 88.0781,141.4219 Q90.3438,141.4219 91.0781,142.1406 Q92.4688,143.5469 92.4063,145.9375 L89.9375,145.9375 Q89.875,143.8125 89.1406,143.0781 Q88.75,142.6719 88.0781,142.6719 Q88.0781,142.6719 88.0156,143.1406 Q86.6875,144.4688 86.6875,148.125 Q86.6875,151.3125 87.8281,152.4375 Q88.3594,152.9688 88.3594,152.9688 Q88.6094,152.9688 89.1406,152.4375 Q89.8125,151.7813 89.875,149.3906 L92.4688,149.3906 Q92.2656,152.375 91.2031,153.4375 Z "/><text fill="#000000" font-family="Mgen+ 1cp regular" font-size="12" lengthAdjust="spacingAndGlyphs" textLength="53" x="102.5" y="153.6074">クラスB00</text><line style="stroke: #A80036; stroke-width: 1.5;" x1="74.5" x2="157.5" y1="164" y2="164"/><line style="stroke: #A80036; stroke-width: 1.5;" x1="74.5" x2="157.5" y1="172" y2="172"/><ellipse cx="84.5" cy="185.6694" fill="#84BE84" rx="3" ry="3" style="stroke: #038048; stroke-width: 1.0;"/><text fill="#000000" font-family="Mgen+ 1cp regular" font-size="11" lengthAdjust="spacingAndGlyphs" textLength="52" x="93.5" y="189.3096">メソッド2()</text><!--class クラスC--><rect fill="#FEFECE" filter="url(#f18zo66rsqntb7)" height="48" id="クラスC" style="stroke: #A80036; stroke-width: 1.5;" width="71" x="193.5" y="140"/><ellipse cx="208.5" cy="156" fill="#ADD1B2" rx="11" ry="11" style="stroke: #A80036; stroke-width: 1.0;"/><path d="M211.2031,161.4375 Q210.2813,162.3594 208.0156,162.3594 Q206.75,162.3594 205.8281,161.4375 Q204.1719,159.7813 204.1719,156.25 Q204.1719,152.1406 205.9531,150.3438 Q206.8906,149.4219 208.0781,149.4219 Q210.3438,149.4219 211.0781,150.1406 Q212.4688,151.5469 212.4063,153.9375 L209.9375,153.9375 Q209.875,151.8125 209.1406,151.0781 Q208.75,150.6719 208.0781,150.6719 Q208.0781,150.6719 208.0156,151.1406 Q206.6875,152.4688 206.6875,156.125 Q206.6875,159.3125 207.8281,160.4375 Q208.3594,160.9688 208.3594,160.9688 Q208.6094,160.9688 209.1406,160.4375 Q209.8125,159.7813 209.875,157.3906 L212.4688,157.3906 Q212.2656,160.375 211.2031,161.4375 Z "/><text fill="#000000" font-family="Mgen+ 1cp regular" font-size="12" lengthAdjust="spacingAndGlyphs" textLength="39" x="222.5" y="161.6074">クラスC</text><line style="stroke: #A80036; stroke-width: 1.5;" x1="194.5" x2="263.5" y1="172" y2="172"/><line style="stroke: #A80036; stroke-width: 1.5;" x1="194.5" x2="263.5" y1="180" y2="180"/><!--class クラスAプパ--><rect fill="#FEFECE" filter="url(#f18zo66rsqntb7)" height="48" id="クラスAプパ" style="stroke: #A80036; stroke-width: 1.5;" width="96" x="125" y="16"/><ellipse cx="140" cy="32" fill="#ADD1B2" rx="11" ry="11" style="stroke: #A80036; stroke-width: 1.0;"/><path d="M142.7031,37.4375 Q141.7813,38.3594 139.5156,38.3594 Q138.25,38.3594 137.3281,37.4375 Q135.6719,35.7813 135.6719,32.25 Q135.6719,28.1406 137.4531,26.3438 Q138.3906,25.4219 139.5781,25.4219 Q141.8438,25.4219 142.5781,26.1406 Q143.9688,27.5469 143.9063,29.9375 L141.4375,29.9375 Q141.375,27.8125 140.6406,27.0781 Q140.25,26.6719 139.5781,26.6719 Q139.5781,26.6719 139.5156,27.1406 Q138.1875,28.4688 138.1875,32.125 Q138.1875,35.3125 139.3281,36.4375 Q139.8594,36.9688 139.8594,36.9688 Q140.1094,36.9688 140.6406,36.4375 Q141.3125,35.7813 141.375,33.3906 L143.9688,33.3906 Q143.7656,36.375 142.7031,37.4375 Z "/><text fill="#000000" font-family="Mgen+ 1cp regular" font-size="12" lengthAdjust="spacingAndGlyphs" textLength="64" x="154" y="37.6074">クラスAプパ</text><line style="stroke: #A80036; stroke-width: 1.5;" x1="126" x2="220" y1="48" y2="48"/><line style="stroke: #A80036; stroke-width: 1.5;" x1="126" x2="220" y1="56" y2="56"/><!--link クラスAプパ to クラスB00--><path d="M162.145,64.234 C153.23,83.316 140.517,110.5251 130.692,131.5547 " fill="none" id="クラスAプパ-クラスB00" style="stroke: #A80036; stroke-width: 1.0;"/><!--link クラスAプパ to クラスC--><path d="M192.031,82.46 C200.83,101.629 210.95,123.6764 218.375,139.8521 " fill="none" id="クラスAプパ-クラスC" style="stroke: #A80036; stroke-width: 1.0;"/><polygon fill="none" points="185.647,85.331,183.665,64.234,198.37,79.491,185.647,85.331" style="stroke: #A80036; stroke-width: 1.0;"/><!--
@startuml
skinparam {
  defaultFontName "Mgen+ 1cp regular"
}

class "クラスAプ" {
  +メソッド1()
}
class "クラスB00" {
  +メソッド2()
}
class "クラスC" {
}
"クラスAプパ" - - "クラスB00"
"クラスAプパ" <|- - "クラスC"
@enduml

PlantUML version 1.2017.15(Tue Jul 04 01:45:34 JST 2017)
(APACHE source distribution)
Java Runtime: Java(TM) SE Runtime Environment
JVM: Java HotSpot(TM) 64-Bit Server VM
Java Version: 1.8.0_151-b12
Operating System: Windows 10
OS Version: 10.0
Default Encoding: MS932
Language: ja
Country: JP
--></g></svg>