<?xml version="1.0" encoding="UTF-8" standalone="no"?><svg xmlns="http://www.w3.org/2000/svg" xmlns:xlink="http://www.w3.org/1999/xlink" contentScriptType="application/ecmascript" contentStyleType="text/css" height="498px" preserveAspectRatio="none" style="width:562px;height:498px;" version="1.1" viewBox="0 0 562 498" width="562px" zoomAndPan="magnify"><defs><filter height="300%" id="f1c0gj6c4qyuud" width="300%" x="-1" y="-1"><feGaussianBlur result="blurOut" stdDeviation="2.0"/><feColorMatrix in="blurOut" result="blurOut2" type="matrix" values="0 0 0 0 0 0 0 0 0 0 0 0 0 0 0 0 0 0 .4 0"/><feOffset dx="4.0" dy="4.0" in="blurOut2" result="blurOut3"/><feBlend in="SourceGraphic" in2="blurOut3" mode="normal"/></filter></defs><g><text fill="#000000" font-family="mplus-1c-regular" font-size="14" font-weight="bold" lengthAdjust="spacingAndGlyphs" textLength="165" x="196" y="26.9307">シーケンス図のサンプル</text><rect fill="#FFFFFF" filter="url(#f1c0gj6c4qyuud)" height="210.4064" style="stroke: #A80036; stroke-width: 1.0;" width="10" x="119" y="160.5572"/><rect fill="#FFFFFF" filter="url(#f1c0gj6c4qyuud)" height="38.2831" style="stroke: #A80036; stroke-width: 1.0;" width="10" x="254" y="264.3974"/><rect fill="#FFFFFF" filter="url(#f1c0gj6c4qyuud)" height="127.1639" style="stroke: #A80036; stroke-width: 1.0;" width="10" x="336.5" y="340.9635"/><rect fill="#FEFECE" filter="url(#f1c0gj6c4qyuud)" height="55.5572" style="stroke: #A80036; stroke-width: 1.5;" width="72" x="221" y="168.8402"/><text fill="#000000" font-family="mplus-1c-regular" font-size="14" font-style="italic" lengthAdjust="spacingAndGlyphs" textLength="58" x="228" y="189.8402">«Model»</text><text fill="#000000" font-family="mplus-1c-regular" font-size="14" lengthAdjust="spacingAndGlyphs" text-decoration="underline" textLength="44" x="235" y="210.6188">Loader</text><line style="stroke: #000000; stroke-width: 1.0;" x1="235" x2="279" y1="212.6188" y2="212.6188"/><rect fill="#FFFFFF" filter="url(#f1c0gj6c4qyuud)" height="68.8808" style="stroke: #000000; stroke-width: 2.0;" width="170" x="297" y="386.2466"/><line style="stroke: #A80036; stroke-width: 1.0; stroke-dasharray: 5.0,5.0;" x1="39" x2="39" y1="125.5572" y2="486.1274"/><line style="stroke: #A80036; stroke-width: 1.0; stroke-dasharray: 5.0,5.0;" x1="124" x2="124" y1="125.5572" y2="486.1274"/><line style="stroke: #A80036; stroke-width: 1.0; stroke-dasharray: 5.0,5.0;" x1="259" x2="259" y1="214.1188" y2="486.1274"/><line style="stroke: #A80036; stroke-width: 1.0; stroke-dasharray: 5.0,5.0;" x1="341" x2="341" y1="125.5572" y2="486.1274"/><text fill="#000000" font-family="mplus-1c-regular" font-size="14" lengthAdjust="spacingAndGlyphs" textLength="56" x="8" y="121.7093">ユーザー</text><ellipse cx="39" cy="47.7786" fill="#FEFECE" filter="url(#f1c0gj6c4qyuud)" rx="8" ry="8" style="stroke: #A80036; stroke-width: 2.0;"/><path d="M39,55.7786 L39,82.7786 M26,63.7786 L52,63.7786 M39,82.7786 L26,97.7786 M39,82.7786 L52,97.7786 " fill="#FEFECE" filter="url(#f1c0gj6c4qyuud)" style="stroke: #A80036; stroke-width: 2.0;"/><rect fill="#FEFECE" filter="url(#f1c0gj6c4qyuud)" height="55.5572" style="stroke: #A80036; stroke-width: 1.5;" width="84" x="80" y="65"/><text fill="#000000" font-family="mplus-1c-regular" font-size="14" font-style="italic" lengthAdjust="spacingAndGlyphs" textLength="70" x="87" y="86">«Control»</text><text fill="#000000" font-family="mplus-1c-regular" font-size="14" lengthAdjust="spacingAndGlyphs" textLength="42" x="101" y="106.7786">制御部</text><rect fill="#98FB98" filter="url(#f1c0gj6c4qyuud)" height="55.5572" style="stroke: #A80036; stroke-width: 1.5;" width="65" x="307" y="65"/><text fill="#000000" font-family="mplus-1c-regular" font-size="14" font-style="italic" lengthAdjust="spacingAndGlyphs" textLength="51" x="314" y="86">«View»</text><text fill="#000000" font-family="mplus-1c-regular" font-size="14" lengthAdjust="spacingAndGlyphs" textLength="28" x="325.5" y="106.7786">画面</text><rect fill="#FFFFFF" filter="url(#f1c0gj6c4qyuud)" height="210.4064" style="stroke: #A80036; stroke-width: 1.0;" width="10" x="119" y="160.5572"/><rect fill="#FFFFFF" filter="url(#f1c0gj6c4qyuud)" height="38.2831" style="stroke: #A80036; stroke-width: 1.0;" width="10" x="254" y="264.3974"/><rect fill="#FFFFFF" filter="url(#f1c0gj6c4qyuud)" height="127.1639" style="stroke: #A80036; stroke-width: 1.0;" width="10" x="336.5" y="340.9635"/><polygon fill="#A80036" points="107,156.5572,117,160.5572,107,164.5572,111,160.5572" style="stroke: #A80036; stroke-width: 1.0;"/><line style="stroke: #A80036; stroke-width: 1.0;" x1="39" x2="113" y1="160.5572" y2="160.5572"/><text fill="#000000" font-family="mplus-1c-regular" font-size="13" lengthAdjust="spacingAndGlyphs" textLength="26" x="46" y="155.2693">検索</text><polygon fill="#A80036" points="209,189.8402,219,193.8402,209,197.8402,213,193.8402" style="stroke: #A80036; stroke-width: 1.0;"/><line style="stroke: #A80036; stroke-width: 1.0;" x1="129" x2="215" y1="193.8402" y2="193.8402"/><text fill="#000000" font-family="mplus-1c-regular" font-size="13" lengthAdjust="spacingAndGlyphs" textLength="68" x="136" y="188.5524">&lt;&lt; new &gt;&gt;</text><rect fill="#FEFECE" filter="url(#f1c0gj6c4qyuud)" height="55.5572" style="stroke: #A80036; stroke-width: 1.5;" width="72" x="221" y="168.8402"/><text fill="#000000" font-family="mplus-1c-regular" font-size="14" font-style="italic" lengthAdjust="spacingAndGlyphs" textLength="58" x="228" y="189.8402">«Model»</text><text fill="#000000" font-family="mplus-1c-regular" font-size="14" lengthAdjust="spacingAndGlyphs" text-decoration="underline" textLength="44" x="235" y="210.6188">Loader</text><line style="stroke: #000000; stroke-width: 1.0;" x1="235" x2="279" y1="212.6188" y2="212.6188"/><polygon fill="#A80036" points="242,260.3974,252,264.3974,242,268.3974,246,264.3974" style="stroke: #A80036; stroke-width: 1.0;"/><line style="stroke: #A80036; stroke-width: 1.0;" x1="129" x2="248" y1="264.3974" y2="264.3974"/><text fill="#000000" font-family="mplus-1c-regular" font-size="13" lengthAdjust="spacingAndGlyphs" textLength="65" x="136" y="259.1095">データ検索</text><polygon fill="#A80036" points="140,298.6805,130,302.6805,140,306.6805,136,302.6805" style="stroke: #A80036; stroke-width: 1.0;"/><line style="stroke: #A80036; stroke-width: 1.0; stroke-dasharray: 2.0,2.0;" x1="134" x2="258" y1="302.6805" y2="302.6805"/><text fill="#000000" font-family="mplus-1c-regular" font-size="13" lengthAdjust="spacingAndGlyphs" textLength="52" x="146" y="297.3926">検索結果</text><polygon fill="#FBFB77" filter="url(#f1c0gj6c4qyuud)" points="269,277.6805,269,306.6805,540,306.6805,540,287.6805,530,277.6805,269,277.6805" style="stroke: #A80036; stroke-width: 1.0;"/><line style="stroke: #A80036; stroke-width: 1.0;" x1="530" x2="530" y1="277.6805" y2="287.6805"/><line style="stroke: #A80036; stroke-width: 1.0;" x1="540" x2="530" y1="287.6805" y2="287.6805"/><text fill="#000000" font-family="mplus-1c-regular" font-size="13" lengthAdjust="spacingAndGlyphs" textLength="250" x="275" y="298.3926">ヒットしたものをリストで返します。プ00</text><line style="stroke: #A80036; stroke-width: 2.0;" x1="250" x2="268" y1="293.6805" y2="311.6805"/><line style="stroke: #A80036; stroke-width: 2.0;" x1="250" x2="268" y1="311.6805" y2="293.6805"/><polygon fill="#A80036" points="324.5,336.9635,334.5,340.9635,324.5,344.9635,328.5,340.9635" style="stroke: #A80036; stroke-width: 1.0;"/><line style="stroke: #A80036; stroke-width: 1.0;" x1="129" x2="330.5" y1="340.9635" y2="340.9635"/><text fill="#000000" font-family="mplus-1c-regular" font-size="13" lengthAdjust="spacingAndGlyphs" textLength="88" x="136" y="335.6756">表示(検索結果)</text><rect fill="none" height="68.8808" style="stroke: #000000; stroke-width: 2.0;" width="170" x="297" y="386.2466"/><polygon fill="#EEEEEE" points="297,386.2466,371,386.2466,371,397.2466,361,407.2466,297,407.2466,297,386.2466" style="stroke: #000000; stroke-width: 2.0;"/><text fill="#000000" font-family="mplus-1c-regular" font-size="13" font-weight="bold" lengthAdjust="spacingAndGlyphs" textLength="29" x="312" y="402.9587">loop</text><text fill="#000000" font-family="mplus-1c-regular" font-size="11" font-weight="bold" lengthAdjust="spacingAndGlyphs" textLength="76" x="386" y="401.54">[1, データ数]</text><line style="stroke: #A80036; stroke-width: 1.0;" x1="346.5" x2="388.5" y1="434.1274" y2="434.1274"/><line style="stroke: #A80036; stroke-width: 1.0;" x1="388.5" x2="388.5" y1="434.1274" y2="447.1274"/><line style="stroke: #A80036; stroke-width: 1.0;" x1="347.5" x2="388.5" y1="447.1274" y2="447.1274"/><polygon fill="#A80036" points="357.5,443.1274,347.5,447.1274,357.5,451.1274,353.5,447.1274" style="stroke: #A80036; stroke-width: 1.0;"/><text fill="#000000" font-family="mplus-1c-regular" font-size="13" lengthAdjust="spacingAndGlyphs" textLength="78" x="353.5" y="428.5565">データの表示</text><polygon fill="#A80036" points="50,464.1274,40,468.1274,50,472.1274,46,468.1274" style="stroke: #A80036; stroke-width: 1.0;"/><line style="stroke: #A80036; stroke-width: 1.0; stroke-dasharray: 2.0,2.0;" x1="44" x2="340.5" y1="468.1274" y2="468.1274"/><!--
@startuml{plantuml_seq_sample.svg}
skinparam {
  defaultFontName "mplus-1c-regular"
}

title シーケンス図のサンプル
hide footbox

actor ユーザー as user
participant 制御部 as control <<Control>>
participant "<u>Loader</u>" as model <<Model>>
participant 画面 as view <<View>> #98FB98

user -> control : 検索
activate control
create model
control -> model : << new >>
control -> model : データ検索
activate model
control <- - model : 検索結果
note right : ヒットしたものをリストで返します。プ00
deactivate model
destroy model

control -> view : 表示(検索結果)
activate view
deactivate control
loop 1, データ数
  view -> view : データの表示
end
view - -> user
deactivate view

@enduml

PlantUML version 1.2017.15(Tue Jul 04 01:45:34 JST 2017)
(APACHE source distribution)
Java Runtime: Java(TM) SE Runtime Environment
JVM: Java HotSpot(TM) 64-Bit Server VM
Java Version: 1.8.0_151-b12
Operating System: Windows 10
OS Version: 10.0
Default Encoding: MS932
Language: ja
Country: JP
--></g></svg>