<?xml version="1.0" encoding="UTF-8" standalone="no"?><svg xmlns="http://www.w3.org/2000/svg" xmlns:xlink="http://www.w3.org/1999/xlink" contentScriptType="application/ecmascript" contentStyleType="text/css" height="498px" preserveAspectRatio="none" style="width:533px;height:498px;" version="1.1" viewBox="0 0 533 498" width="533px" zoomAndPan="magnify"><defs><filter height="300%" id="f1j6bpas7ikfmw" width="300%" x="-1" y="-1"><feGaussianBlur result="blurOut" stdDeviation="2.0"/><feColorMatrix in="blurOut" result="blurOut2" type="matrix" values="0 0 0 0 0 0 0 0 0 0 0 0 0 0 0 0 0 0 .4 0"/><feOffset dx="4.0" dy="4.0" in="blurOut2" result="blurOut3"/><feBlend in="SourceGraphic" in2="blurOut3" mode="normal"/></filter></defs><g><text fill="#000000" font-family="Mgen+ 1cp regular" font-size="14" font-weight="bold" lengthAdjust="spacingAndGlyphs" textLength="160" x="184" y="26.9395">シーケンス図のサンプル</text><rect fill="#FFFFFF" filter="url(#f1j6bpas7ikfmw)" height="210.5186" style="stroke: #A80036; stroke-width: 1.0;" width="10" x="118" y="160.5898"/><rect fill="#FFFFFF" filter="url(#f1j6bpas7ikfmw)" height="38.3096" style="stroke: #A80036; stroke-width: 1.0;" width="10" x="253" y="264.4893"/><rect fill="#FFFFFF" filter="url(#f1j6bpas7ikfmw)" height="127.2676" style="stroke: #A80036; stroke-width: 1.0;" width="10" x="335.5" y="341.1084"/><rect fill="#FEFECE" filter="url(#f1j6bpas7ikfmw)" height="55.5898" style="stroke: #A80036; stroke-width: 1.5;" width="72" x="220" y="168.8994"/><text fill="#000000" font-family="Mgen+ 1cp regular" font-size="14" font-style="italic" lengthAdjust="spacingAndGlyphs" textLength="58" x="227" y="189.8994">«Model»</text><text fill="#000000" font-family="Mgen+ 1cp regular" font-size="14" lengthAdjust="spacingAndGlyphs" text-decoration="underline" textLength="44" x="234" y="210.6943">Loader</text><line style="stroke: #000000; stroke-width: 1.0;" x1="234" x2="278" y1="212.6943" y2="212.6943"/><rect fill="#FFFFFF" filter="url(#f1j6bpas7ikfmw)" height="68.958" style="stroke: #000000; stroke-width: 2.0;" width="168" x="296" y="386.418"/><line style="stroke: #A80036; stroke-width: 1.0; stroke-dasharray: 5.0,5.0;" x1="38" x2="38" y1="125.5898" y2="486.376"/><line style="stroke: #A80036; stroke-width: 1.0; stroke-dasharray: 5.0,5.0;" x1="123" x2="123" y1="125.5898" y2="486.376"/><line style="stroke: #A80036; stroke-width: 1.0; stroke-dasharray: 5.0,5.0;" x1="258" x2="258" y1="214.1943" y2="486.376"/><line style="stroke: #A80036; stroke-width: 1.0; stroke-dasharray: 5.0,5.0;" x1="340" x2="340" y1="125.5898" y2="486.376"/><text fill="#000000" font-family="Mgen+ 1cp regular" font-size="14" lengthAdjust="spacingAndGlyphs" textLength="55" x="8" y="121.7344">ユーザー</text><ellipse cx="38.5" cy="47.7949" fill="#FEFECE" filter="url(#f1j6bpas7ikfmw)" rx="8" ry="8" style="stroke: #A80036; stroke-width: 2.0;"/><path d="M38.5,55.7949 L38.5,82.7949 M25.5,63.7949 L51.5,63.7949 M38.5,82.7949 L25.5,97.7949 M38.5,82.7949 L51.5,97.7949 " fill="#FEFECE" filter="url(#f1j6bpas7ikfmw)" style="stroke: #A80036; stroke-width: 2.0;"/><rect fill="#FEFECE" filter="url(#f1j6bpas7ikfmw)" height="55.5898" style="stroke: #A80036; stroke-width: 1.5;" width="84" x="79" y="65"/><text fill="#000000" font-family="Mgen+ 1cp regular" font-size="14" font-style="italic" lengthAdjust="spacingAndGlyphs" textLength="70" x="86" y="86">«Control»</text><text fill="#000000" font-family="Mgen+ 1cp regular" font-size="14" lengthAdjust="spacingAndGlyphs" textLength="42" x="100" y="106.7949">制御部</text><rect fill="#98FB98" filter="url(#f1j6bpas7ikfmw)" height="55.5898" style="stroke: #A80036; stroke-width: 1.5;" width="65" x="306" y="65"/><text fill="#000000" font-family="Mgen+ 1cp regular" font-size="14" font-style="italic" lengthAdjust="spacingAndGlyphs" textLength="51" x="313" y="86">«View»</text><text fill="#000000" font-family="Mgen+ 1cp regular" font-size="14" lengthAdjust="spacingAndGlyphs" textLength="28" x="324.5" y="106.7949">画面</text><rect fill="#FFFFFF" filter="url(#f1j6bpas7ikfmw)" height="210.5186" style="stroke: #A80036; stroke-width: 1.0;" width="10" x="118" y="160.5898"/><rect fill="#FFFFFF" filter="url(#f1j6bpas7ikfmw)" height="38.3096" style="stroke: #A80036; stroke-width: 1.0;" width="10" x="253" y="264.4893"/><rect fill="#FFFFFF" filter="url(#f1j6bpas7ikfmw)" height="127.2676" style="stroke: #A80036; stroke-width: 1.0;" width="10" x="335.5" y="341.1084"/><polygon fill="#A80036" points="106,156.5898,116,160.5898,106,164.5898,110,160.5898" style="stroke: #A80036; stroke-width: 1.0;"/><line style="stroke: #A80036; stroke-width: 1.0;" x1="38.5" x2="112" y1="160.5898" y2="160.5898"/><text fill="#000000" font-family="Mgen+ 1cp regular" font-size="13" lengthAdjust="spacingAndGlyphs" textLength="26" x="45.5" y="155.3193">検索</text><polygon fill="#A80036" points="208,189.8994,218,193.8994,208,197.8994,212,193.8994" style="stroke: #A80036; stroke-width: 1.0;"/><line style="stroke: #A80036; stroke-width: 1.0;" x1="128" x2="214" y1="193.8994" y2="193.8994"/><text fill="#000000" font-family="Mgen+ 1cp regular" font-size="13" lengthAdjust="spacingAndGlyphs" textLength="68" x="135" y="188.6289">&lt;&lt; new &gt;&gt;</text><rect fill="#FEFECE" filter="url(#f1j6bpas7ikfmw)" height="55.5898" style="stroke: #A80036; stroke-width: 1.5;" width="72" x="220" y="168.8994"/><text fill="#000000" font-family="Mgen+ 1cp regular" font-size="14" font-style="italic" lengthAdjust="spacingAndGlyphs" textLength="58" x="227" y="189.8994">«Model»</text><text fill="#000000" font-family="Mgen+ 1cp regular" font-size="14" lengthAdjust="spacingAndGlyphs" text-decoration="underline" textLength="44" x="234" y="210.6943">Loader</text><line style="stroke: #000000; stroke-width: 1.0;" x1="234" x2="278" y1="212.6943" y2="212.6943"/><polygon fill="#A80036" points="241,260.4893,251,264.4893,241,268.4893,245,264.4893" style="stroke: #A80036; stroke-width: 1.0;"/><line style="stroke: #A80036; stroke-width: 1.0;" x1="128" x2="247" y1="264.4893" y2="264.4893"/><text fill="#000000" font-family="Mgen+ 1cp regular" font-size="13" lengthAdjust="spacingAndGlyphs" textLength="62" x="135" y="259.2188">データ検索</text><polygon fill="#A80036" points="139,298.7988,129,302.7988,139,306.7988,135,302.7988" style="stroke: #A80036; stroke-width: 1.0;"/><line style="stroke: #A80036; stroke-width: 1.0; stroke-dasharray: 2.0,2.0;" x1="133" x2="257" y1="302.7988" y2="302.7988"/><text fill="#000000" font-family="Mgen+ 1cp regular" font-size="13" lengthAdjust="spacingAndGlyphs" textLength="52" x="145" y="297.5283">検索結果</text><polygon fill="#FBFB77" filter="url(#f1j6bpas7ikfmw)" points="268,277.7988,268,306.7988,511,306.7988,511,287.7988,501,277.7988,268,277.7988" style="stroke: #A80036; stroke-width: 1.0;"/><line style="stroke: #A80036; stroke-width: 1.0;" x1="501" x2="501" y1="277.7988" y2="287.7988"/><line style="stroke: #A80036; stroke-width: 1.0;" x1="511" x2="501" y1="287.7988" y2="287.7988"/><text fill="#000000" font-family="Mgen+ 1cp regular" font-size="13" lengthAdjust="spacingAndGlyphs" textLength="222" x="274" y="298.5283">ヒットしたものをリストで返します。プ00</text><line style="stroke: #A80036; stroke-width: 2.0;" x1="249" x2="267" y1="293.7988" y2="311.7988"/><line style="stroke: #A80036; stroke-width: 2.0;" x1="249" x2="267" y1="311.7988" y2="293.7988"/><polygon fill="#A80036" points="323.5,337.1084,333.5,341.1084,323.5,345.1084,327.5,341.1084" style="stroke: #A80036; stroke-width: 1.0;"/><line style="stroke: #A80036; stroke-width: 1.0;" x1="128" x2="329.5" y1="341.1084" y2="341.1084"/><text fill="#000000" font-family="Mgen+ 1cp regular" font-size="13" lengthAdjust="spacingAndGlyphs" textLength="88" x="135" y="335.8379">表示(検索結果)</text><rect fill="none" height="68.958" style="stroke: #000000; stroke-width: 2.0;" width="168" x="296" y="386.418"/><polygon fill="#EEEEEE" points="296,386.418,370,386.418,370,397.418,360,407.418,296,407.418,296,386.418" style="stroke: #000000; stroke-width: 2.0;"/><text fill="#000000" font-family="Mgen+ 1cp regular" font-size="13" font-weight="bold" lengthAdjust="spacingAndGlyphs" textLength="29" x="311" y="403.1475">loop</text><text fill="#000000" font-family="Mgen+ 1cp regular" font-size="11" font-weight="bold" lengthAdjust="spacingAndGlyphs" textLength="74" x="385" y="401.7275">[1, データ数]</text><line style="stroke: #A80036; stroke-width: 1.0;" x1="345.5" x2="387.5" y1="434.376" y2="434.376"/><line style="stroke: #A80036; stroke-width: 1.0;" x1="387.5" x2="387.5" y1="434.376" y2="447.376"/><line style="stroke: #A80036; stroke-width: 1.0;" x1="346.5" x2="387.5" y1="447.376" y2="447.376"/><polygon fill="#A80036" points="356.5,443.376,346.5,447.376,356.5,451.376,352.5,447.376" style="stroke: #A80036; stroke-width: 1.0;"/><text fill="#000000" font-family="Mgen+ 1cp regular" font-size="13" lengthAdjust="spacingAndGlyphs" textLength="75" x="352.5" y="428.7959">データの表示</text><polygon fill="#A80036" points="49.5,464.376,39.5,468.376,49.5,472.376,45.5,468.376" style="stroke: #A80036; stroke-width: 1.0;"/><line style="stroke: #A80036; stroke-width: 1.0; stroke-dasharray: 2.0,2.0;" x1="43.5" x2="339.5" y1="468.376" y2="468.376"/><!--
@startuml{plantuml_seq_sample.svg}
skinparam {
  defaultFontName "Mgen+ 1cp regular"
}

title シーケンス図のサンプル
hide footbox

actor ユーザー as user
participant 制御部 as control <<Control>>
participant "<u>Loader</u>" as model <<Model>>
participant 画面 as view <<View>> #98FB98

user -> control : 検索
activate control
create model
control -> model : << new >>
control -> model : データ検索
activate model
control <- - model : 検索結果
note right : ヒットしたものをリストで返します。プ00
deactivate model
destroy model

control -> view : 表示(検索結果)
activate view
deactivate control
loop 1, データ数
  view -> view : データの表示
end
view - -> user
deactivate view

@enduml

PlantUML version 1.2017.15(Tue Jul 04 01:45:34 JST 2017)
(APACHE source distribution)
Java Runtime: Java(TM) SE Runtime Environment
JVM: Java HotSpot(TM) 64-Bit Server VM
Java Version: 1.8.0_151-b12
Operating System: Windows 10
OS Version: 10.0
Default Encoding: MS932
Language: ja
Country: JP
--></g></svg>