<?xml version="1.0" encoding="UTF-8" standalone="no"?><svg xmlns="http://www.w3.org/2000/svg" xmlns:xlink="http://www.w3.org/1999/xlink" contentScriptType="application/ecmascript" contentStyleType="text/css" height="207px" preserveAspectRatio="none" style="width:217px;height:207px;" version="1.1" viewBox="0 0 217 207" width="217px" zoomAndPan="magnify"><defs><filter height="300%" id="flr3u2kdpub0t" width="300%" x="-1" y="-1"><feGaussianBlur result="blurOut" stdDeviation="2.0"/><feColorMatrix in="blurOut" result="blurOut2" type="matrix" values="0 0 0 0 0 0 0 0 0 0 0 0 0 0 0 0 0 0 .4 0"/><feOffset dx="4.0" dy="4.0" in="blurOut2" result="blurOut3"/><feBlend in="SourceGraphic" in2="blurOut3" mode="normal"/></filter></defs><g><!--class クラスAプ--><rect fill="#FEFECE" filter="url(#flr3u2kdpub0t)" height="64.3147" id="クラスAプ" style="stroke: #A80036; stroke-width: 1.5;" width="88" x="65.5" y="8"/><ellipse cx="80.5" cy="24" fill="#ADD1B2" rx="11" ry="11" style="stroke: #A80036; stroke-width: 1.0;"/><path d="M83.2031,29.4375 Q82.2813,30.3594 80.0156,30.3594 Q78.75,30.3594 77.8281,29.4375 Q76.1719,27.7813 76.1719,24.25 Q76.1719,20.1406 77.9531,18.3438 Q78.8906,17.4219 80.0781,17.4219 Q82.3438,17.4219 83.0781,18.1406 Q84.4688,19.5469 84.4063,21.9375 L81.9375,21.9375 Q81.875,19.8125 81.1406,19.0781 Q80.75,18.6719 80.0781,18.6719 Q80.0781,18.6719 80.0156,19.1406 Q78.6875,20.4688 78.6875,24.125 Q78.6875,27.3125 79.8281,28.4375 Q80.3594,28.9688 80.3594,28.9688 Q80.6094,28.9688 81.1406,28.4375 Q81.8125,27.7813 81.875,25.3906 L84.4688,25.3906 Q84.2656,28.375 83.2031,29.4375 Z "/><text fill="#000000" font-family="MigMix 1p" font-size="12" lengthAdjust="spacingAndGlyphs" textLength="56" x="94.5" y="29.6069">クラスAプ</text><line style="stroke: #A80036; stroke-width: 1.5;" x1="66.5" x2="152.5" y1="40" y2="40"/><line style="stroke: #A80036; stroke-width: 1.5;" x1="66.5" x2="152.5" y1="48" y2="48"/><ellipse cx="76.5" cy="61.6573" fill="#84BE84" rx="3" ry="3" style="stroke: #038048; stroke-width: 1.0;"/><text fill="#000000" font-family="MigMix 1p" font-size="11" lengthAdjust="spacingAndGlyphs" textLength="59" x="85.5" y="65.2935">メソッド1()</text><!--class クラスB00--><rect fill="#FEFECE" filter="url(#flr3u2kdpub0t)" height="64.3147" id="クラスB00" style="stroke: #A80036; stroke-width: 1.5;" width="89" x="6" y="132"/><ellipse cx="21" cy="148" fill="#ADD1B2" rx="11" ry="11" style="stroke: #A80036; stroke-width: 1.0;"/><path d="M23.7031,153.4375 Q22.7813,154.3594 20.5156,154.3594 Q19.25,154.3594 18.3281,153.4375 Q16.6719,151.7813 16.6719,148.25 Q16.6719,144.1406 18.4531,142.3438 Q19.3906,141.4219 20.5781,141.4219 Q22.8438,141.4219 23.5781,142.1406 Q24.9688,143.5469 24.9063,145.9375 L22.4375,145.9375 Q22.375,143.8125 21.6406,143.0781 Q21.25,142.6719 20.5781,142.6719 Q20.5781,142.6719 20.5156,143.1406 Q19.1875,144.4688 19.1875,148.125 Q19.1875,151.3125 20.3281,152.4375 Q20.8594,152.9688 20.8594,152.9688 Q21.1094,152.9688 21.6406,152.4375 Q22.3125,151.7813 22.375,149.3906 L24.9688,149.3906 Q24.7656,152.375 23.7031,153.4375 Z "/><text fill="#000000" font-family="MigMix 1p" font-size="12" lengthAdjust="spacingAndGlyphs" textLength="57" x="35" y="153.6069">クラスB00</text><line style="stroke: #A80036; stroke-width: 1.5;" x1="7" x2="94" y1="164" y2="164"/><line style="stroke: #A80036; stroke-width: 1.5;" x1="7" x2="94" y1="172" y2="172"/><ellipse cx="17" cy="185.6573" fill="#84BE84" rx="3" ry="3" style="stroke: #038048; stroke-width: 1.0;"/><text fill="#000000" font-family="MigMix 1p" font-size="11" lengthAdjust="spacingAndGlyphs" textLength="59" x="26" y="189.2935">メソッド2()</text><!--class クラスC--><rect fill="#FEFECE" filter="url(#flr3u2kdpub0t)" height="48" id="クラスC" style="stroke: #A80036; stroke-width: 1.5;" width="76" x="130.5" y="140"/><ellipse cx="145.5" cy="156" fill="#ADD1B2" rx="11" ry="11" style="stroke: #A80036; stroke-width: 1.0;"/><path d="M148.2031,161.4375 Q147.2813,162.3594 145.0156,162.3594 Q143.75,162.3594 142.8281,161.4375 Q141.1719,159.7813 141.1719,156.25 Q141.1719,152.1406 142.9531,150.3438 Q143.8906,149.4219 145.0781,149.4219 Q147.3438,149.4219 148.0781,150.1406 Q149.4688,151.5469 149.4063,153.9375 L146.9375,153.9375 Q146.875,151.8125 146.1406,151.0781 Q145.75,150.6719 145.0781,150.6719 Q145.0781,150.6719 145.0156,151.1406 Q143.6875,152.4688 143.6875,156.125 Q143.6875,159.3125 144.8281,160.4375 Q145.3594,160.9688 145.3594,160.9688 Q145.6094,160.9688 146.1406,160.4375 Q146.8125,159.7813 146.875,157.3906 L149.4688,157.3906 Q149.2656,160.375 148.2031,161.4375 Z "/><text fill="#000000" font-family="MigMix 1p" font-size="12" lengthAdjust="spacingAndGlyphs" textLength="44" x="159.5" y="161.6069">クラスC</text><line style="stroke: #A80036; stroke-width: 1.5;" x1="131.5" x2="205.5" y1="172" y2="172"/><line style="stroke: #A80036; stroke-width: 1.5;" x1="131.5" x2="205.5" y1="180" y2="180"/><!--link クラスAプ to クラスB00--><path d="M94.4592,72.101 C85.5825,90.457 74.3853,113.6101 65.5134,131.9554 " fill="none" id="クラスAプ-クラスB00" style="stroke: #A80036; stroke-width: 1.0;"/><!--link クラスAプ to クラスC--><path d="M133.295,90.203 C141.556,107.2851 150.437,125.6503 157.213,139.6609 " fill="none" id="クラスAプ-クラスC" style="stroke: #A80036; stroke-width: 1.0;"/><polygon fill="none" points="126.946,93.154,124.541,72.101,139.55,87.059,126.946,93.154" style="stroke: #A80036; stroke-width: 1.0;"/><!--
@startuml
skinparam {
  defaultFontName "MigMix 1p"
}

class "クラスAプ" {
  +メソッド1()
}
class "クラスB00" {
  +メソッド2()
}
class "クラスC" {
}
"クラスAプ" - - "クラスB00"
"クラスAプ" <|- - "クラスC"
@enduml

PlantUML version 1.2017.15(Tue Jul 04 01:45:34 JST 2017)
(APACHE source distribution)
Java Runtime: Java(TM) SE Runtime Environment
JVM: Java HotSpot(TM) 64-Bit Server VM
Java Version: 1.8.0_144-b01
Operating System: Windows 10
OS Version: 10.0
Default Encoding: MS932
Language: ja
Country: JP
--></g></svg>