<?xml version="1.0" encoding="UTF-8" standalone="no"?>
<!DOCTYPE svg PUBLIC "-//W3C//DTD SVG 1.1//EN"
 "http://www.w3.org/Graphics/SVG/1.1/DTD/svg11.dtd">
<!-- Generated by graphviz version 2.38.0 (20140413.2041)
 -->
<!-- Title: G Pages: 1 -->
<svg width="347pt" height="260pt"
 viewBox="0.00 0.00 346.99 260.00" xmlns="http://www.w3.org/2000/svg" xmlns:xlink="http://www.w3.org/1999/xlink">
<g id="graph0" class="graph" transform="scale(1 1) rotate(0) translate(4 256)">
<title>G</title>
<polygon fill="white" stroke="none" points="-4,4 -4,-256 342.991,-256 342.991,4 -4,4"/>
<!-- mainメインプ00 -->
<g id="node1" class="node"><title>mainメインプ00</title>
<ellipse fill="none" stroke="black" cx="179.644" cy="-234" rx="79.8859" ry="18"/>
<text text-anchor="middle" x="179.644" y="-230.3" font-family="mplus-1c-regular" font-size="14.00">mainメインプ00</text>
</g>
<!-- parse -->
<g id="node2" class="node"><title>parse</title>
<ellipse fill="none" stroke="black" cx="131.644" cy="-162" rx="34.394" ry="18"/>
<text text-anchor="middle" x="131.644" y="-158.3" font-family="mplus-1c-regular" font-size="14.00">parse</text>
</g>
<!-- mainメインプ00&#45;&gt;parse -->
<g id="edge1" class="edge"><title>mainメインプ00&#45;&gt;parse</title>
<path fill="none" stroke="black" d="M168.025,-216.055C162.162,-207.505 154.941,-196.975 148.483,-187.556"/>
<polygon fill="black" stroke="black" points="151.368,-185.575 142.826,-179.307 145.595,-189.534 151.368,-185.575"/>
</g>
<!-- init -->
<g id="node4" class="node"><title>init</title>
<ellipse fill="none" stroke="black" cx="66.6442" cy="-90" rx="27" ry="18"/>
<text text-anchor="middle" x="66.6442" y="-86.3" font-family="mplus-1c-regular" font-size="14.00">init</text>
</g>
<!-- mainメインプ00&#45;&gt;init -->
<g id="edge3" class="edge"><title>mainメインプ00&#45;&gt;init</title>
<path fill="none" stroke="black" d="M139.635,-218.235C121.578,-209.663 101.468,-197.121 88.6442,-180 75.2614,-162.133 69.9391,-137.129 67.8621,-118.172"/>
<polygon fill="black" stroke="black" points="71.3381,-117.741 66.9945,-108.077 64.3638,-118.34 71.3381,-117.741"/>
</g>
<!-- cleanup -->
<g id="node5" class="node"><title>cleanup</title>
<ellipse fill="none" stroke="black" cx="228.644" cy="-162" rx="44.393" ry="18"/>
<text text-anchor="middle" x="228.644" y="-158.3" font-family="mplus-1c-regular" font-size="14.00">cleanup</text>
</g>
<!-- mainメインプ00&#45;&gt;cleanup -->
<g id="edge4" class="edge"><title>mainメインプ00&#45;&gt;cleanup</title>
<path fill="none" stroke="black" d="M191.506,-216.055C197.344,-207.715 204.501,-197.491 210.968,-188.252"/>
<polygon fill="black" stroke="black" points="214.025,-189.988 216.892,-179.789 208.29,-185.974 214.025,-189.988"/>
</g>
<!-- printf -->
<g id="node7" class="node"><title>printf</title>
<ellipse fill="none" stroke="black" cx="300.644" cy="-18" rx="38.1938" ry="18"/>
<text text-anchor="middle" x="300.644" y="-14.3" font-family="mplus-1c-regular" font-size="14.00">printf</text>
</g>
<!-- mainメインプ00&#45;&gt;printf -->
<g id="edge8" class="edge"><title>mainメインプ00&#45;&gt;printf</title>
<path fill="none" stroke="black" d="M227.043,-219.447C247.072,-211.275 268.714,-198.718 281.644,-180 309.215,-140.089 308.274,-80.9448 304.715,-46.5536"/>
<polygon fill="black" stroke="black" points="308.154,-45.8312 303.501,-36.3131 301.203,-46.6557 308.154,-45.8312"/>
</g>
<!-- execute -->
<g id="node3" class="node"><title>execute</title>
<ellipse fill="none" stroke="black" cx="174.644" cy="-90" rx="44.6926" ry="18"/>
<text text-anchor="middle" x="174.644" y="-86.3" font-family="mplus-1c-regular" font-size="14.00">execute</text>
</g>
<!-- parse&#45;&gt;execute -->
<g id="edge2" class="edge"><title>parse&#45;&gt;execute</title>
<path fill="none" stroke="black" d="M141.617,-144.765C146.806,-136.317 153.267,-125.799 159.095,-116.312"/>
<polygon fill="black" stroke="black" points="162.175,-117.986 164.427,-107.633 156.21,-114.322 162.175,-117.986"/>
</g>
<!-- make_string -->
<g id="node6" class="node"><title>make_string</title>
<ellipse fill="none" stroke="black" cx="65.6442" cy="-18" rx="65.7887" ry="18"/>
<text text-anchor="middle" x="65.6442" y="-14.3" font-family="mplus-1c-regular" font-size="14.00">make_string</text>
</g>
<!-- execute&#45;&gt;make_string -->
<g id="edge5" class="edge"><title>execute&#45;&gt;make_string</title>
<path fill="none" stroke="black" d="M151.794,-74.3257C136.484,-64.4936 116.075,-51.3865 98.9637,-40.3978"/>
<polygon fill="black" stroke="black" points="100.667,-37.3319 90.3609,-34.8731 96.8839,-43.2219 100.667,-37.3319"/>
</g>
<!-- execute&#45;&gt;printf -->
<g id="edge6" class="edge"><title>execute&#45;&gt;printf</title>
<path fill="none" stroke="black" d="M199.839,-75.0027C219.358,-64.1592 246.559,-49.0476 267.786,-37.2545"/>
<polygon fill="black" stroke="black" points="269.731,-40.1777 276.773,-32.2616 266.332,-34.0586 269.731,-40.1777"/>
</g>
<!-- compare -->
<g id="node8" class="node"><title>compare</title>
<ellipse fill="none" stroke="black" cx="196.644" cy="-18" rx="47.3916" ry="18"/>
<text text-anchor="middle" x="196.644" y="-14.3" font-family="mplus-1c-regular" font-size="14.00">compare</text>
</g>
<!-- execute&#45;&gt;compare -->
<g id="edge9" class="edge"><title>execute&#45;&gt;compare</title>
<path fill="none" stroke="black" d="M179.97,-72.055C182.419,-64.2609 185.386,-54.8219 188.134,-46.0789"/>
<polygon fill="black" stroke="black" points="191.555,-46.8647 191.215,-36.2753 184.877,-44.7658 191.555,-46.8647"/>
</g>
<!-- init&#45;&gt;make_string -->
<g id="edge7" class="edge"><title>init&#45;&gt;make_string</title>
<path fill="none" stroke="black" d="M66.397,-71.6966C66.2868,-63.9827 66.1544,-54.7125 66.0315,-46.1124"/>
<polygon fill="black" stroke="black" points="69.5311,-46.0533 65.8885,-36.1043 62.5318,-46.1533 69.5311,-46.0533"/>
</g>
</g>
</svg>
