<?xml version="1.0" encoding="UTF-8" standalone="no"?><svg xmlns="http://www.w3.org/2000/svg" xmlns:xlink="http://www.w3.org/1999/xlink" contentScriptType="application/ecmascript" contentStyleType="text/css" height="446px" preserveAspectRatio="none" style="width:533px;height:446px;" version="1.1" viewBox="0 0 533 446" width="533px" zoomAndPan="magnify"><defs><filter height="300%" id="f1lj4o5wxjloqr" width="300%" x="-1" y="-1"><feGaussianBlur result="blurOut" stdDeviation="2.0"/><feColorMatrix in="blurOut" result="blurOut2" type="matrix" values="0 0 0 0 0 0 0 0 0 0 0 0 0 0 0 0 0 0 .4 0"/><feOffset dx="4.0" dy="4.0" in="blurOut2" result="blurOut3"/><feBlend in="SourceGraphic" in2="blurOut3" mode="normal"/></filter></defs><g><text fill="#000000" font-family="Migu 1M" font-size="14" font-weight="bold" lengthAdjust="spacingAndGlyphs" textLength="154" x="187" y="22.3132">シーケンス図のサンプル</text><rect fill="#FFFFFF" filter="url(#f1lj4o5wxjloqr)" height="185.3037" style="stroke: #A80036; stroke-width: 1.0;" width="10" x="115.5" y="145.0629"/><rect fill="#FFFFFF" filter="url(#f1lj4o5wxjloqr)" height="33.4136" style="stroke: #A80036; stroke-width: 1.0;" width="10" x="241" y="233.5395"/><rect fill="#FFFFFF" filter="url(#f1lj4o5wxjloqr)" height="116.2408" style="stroke: #A80036; stroke-width: 1.0;" width="10" x="314.5" y="300.3667"/><rect fill="#FEFECE" filter="url(#f1lj4o5wxjloqr)" height="45.0629" style="stroke: #A80036; stroke-width: 1.5;" width="63" x="212.5" y="153.4765"/><text fill="#000000" font-family="Migu 1M" font-size="14" font-style="italic" lengthAdjust="spacingAndGlyphs" textLength="49" x="219.5" y="174.4765">«Model»</text><text fill="#000000" font-family="Migu 1M" font-size="14" lengthAdjust="spacingAndGlyphs" text-decoration="underline" textLength="42" x="223" y="190.008">Loader</text><line style="stroke: #000000; stroke-width: 1.0;" x1="223" x2="265" y1="192.008" y2="192.008"/><rect fill="#FFFFFF" filter="url(#f1lj4o5wxjloqr)" height="57.8272" style="stroke: #000000; stroke-width: 2.0;" width="167" x="279.5" y="345.7803"/><line style="stroke: #A80036; stroke-width: 1.0; stroke-dasharray: 5.0,5.0;" x1="39" x2="39" y1="115.0629" y2="434.6075"/><line style="stroke: #A80036; stroke-width: 1.0; stroke-dasharray: 5.0,5.0;" x1="120" x2="120" y1="115.0629" y2="434.6075"/><line style="stroke: #A80036; stroke-width: 1.0; stroke-dasharray: 5.0,5.0;" x1="245.5" x2="245.5" y1="193.508" y2="434.6075"/><line style="stroke: #A80036; stroke-width: 1.0; stroke-dasharray: 5.0,5.0;" x1="319.5" x2="319.5" y1="115.0629" y2="434.6075"/><text fill="#000000" font-family="Migu 1M" font-size="14" lengthAdjust="spacingAndGlyphs" textLength="56" x="8" y="111.8447">ユーザー</text><ellipse cx="39" cy="42.5315" fill="#FEFECE" filter="url(#f1lj4o5wxjloqr)" rx="8" ry="8" style="stroke: #A80036; stroke-width: 2.0;"/><path d="M39,50.5315 L39,77.5315 M26,58.5315 L52,58.5315 M39,77.5315 L26,92.5315 M39,77.5315 L52,92.5315 " fill="#FEFECE" filter="url(#f1lj4o5wxjloqr)" style="stroke: #A80036; stroke-width: 2.0;"/><rect fill="#FEFECE" filter="url(#f1lj4o5wxjloqr)" height="45.0629" style="stroke: #A80036; stroke-width: 1.5;" width="77" x="80" y="65"/><text fill="#000000" font-family="Migu 1M" font-size="14" font-style="italic" lengthAdjust="spacingAndGlyphs" textLength="63" x="87" y="86">«Control»</text><text fill="#000000" font-family="Migu 1M" font-size="14" lengthAdjust="spacingAndGlyphs" textLength="42" x="97.5" y="101.5315">制御部</text><rect fill="#98FB98" filter="url(#f1lj4o5wxjloqr)" height="45.0629" style="stroke: #A80036; stroke-width: 1.5;" width="56" x="289.5" y="65"/><text fill="#000000" font-family="Migu 1M" font-size="14" font-style="italic" lengthAdjust="spacingAndGlyphs" textLength="42" x="296.5" y="86">«View»</text><text fill="#000000" font-family="Migu 1M" font-size="14" lengthAdjust="spacingAndGlyphs" textLength="28" x="303.5" y="101.5315">画面</text><rect fill="#FFFFFF" filter="url(#f1lj4o5wxjloqr)" height="185.3037" style="stroke: #A80036; stroke-width: 1.0;" width="10" x="115.5" y="145.0629"/><rect fill="#FFFFFF" filter="url(#f1lj4o5wxjloqr)" height="33.4136" style="stroke: #A80036; stroke-width: 1.0;" width="10" x="241" y="233.5395"/><rect fill="#FFFFFF" filter="url(#f1lj4o5wxjloqr)" height="116.2408" style="stroke: #A80036; stroke-width: 1.0;" width="10" x="314.5" y="300.3667"/><polygon fill="#A80036" points="103.5,141.0629,113.5,145.0629,103.5,149.0629,107.5,145.0629" style="stroke: #A80036; stroke-width: 1.0;"/><line style="stroke: #A80036; stroke-width: 1.0;" x1="39" x2="109.5" y1="145.0629" y2="145.0629"/><text fill="#000000" font-family="Migu 1M" font-size="13" lengthAdjust="spacingAndGlyphs" textLength="26" x="46" y="140.4899">検索</text><polygon fill="#A80036" points="200.5,169.4765,210.5,173.4765,200.5,177.4765,204.5,173.4765" style="stroke: #A80036; stroke-width: 1.0;"/><line style="stroke: #A80036; stroke-width: 1.0;" x1="125.5" x2="206.5" y1="173.4765" y2="173.4765"/><text fill="#000000" font-family="Migu 1M" font-size="13" lengthAdjust="spacingAndGlyphs" textLength="63" x="132.5" y="168.9035">&lt;&lt; new &gt;&gt;</text><rect fill="#FEFECE" filter="url(#f1lj4o5wxjloqr)" height="45.0629" style="stroke: #A80036; stroke-width: 1.5;" width="63" x="212.5" y="153.4765"/><text fill="#000000" font-family="Migu 1M" font-size="14" font-style="italic" lengthAdjust="spacingAndGlyphs" textLength="49" x="219.5" y="174.4765">«Model»</text><text fill="#000000" font-family="Migu 1M" font-size="14" lengthAdjust="spacingAndGlyphs" text-decoration="underline" textLength="42" x="223" y="190.008">Loader</text><line style="stroke: #000000; stroke-width: 1.0;" x1="223" x2="265" y1="192.008" y2="192.008"/><polygon fill="#A80036" points="229,229.5395,239,233.5395,229,237.5395,233,233.5395" style="stroke: #A80036; stroke-width: 1.0;"/><line style="stroke: #A80036; stroke-width: 1.0;" x1="125.5" x2="235" y1="233.5395" y2="233.5395"/><text fill="#000000" font-family="Migu 1M" font-size="13" lengthAdjust="spacingAndGlyphs" textLength="65" x="132.5" y="228.9665">データ検索</text><polygon fill="#A80036" points="136.5,262.9531,126.5,266.9531,136.5,270.9531,132.5,266.9531" style="stroke: #A80036; stroke-width: 1.0;"/><line style="stroke: #A80036; stroke-width: 1.0; stroke-dasharray: 2.0,2.0;" x1="130.5" x2="245" y1="266.9531" y2="266.9531"/><text fill="#000000" font-family="Migu 1M" font-size="13" lengthAdjust="spacingAndGlyphs" textLength="52" x="142.5" y="262.3801">検索結果</text><polygon fill="#FBFB77" filter="url(#f1lj4o5wxjloqr)" points="256,246.9531,256,270.9531,511,270.9531,511,256.9531,501,246.9531,256,246.9531" style="stroke: #A80036; stroke-width: 1.0;"/><line style="stroke: #A80036; stroke-width: 1.0;" x1="501" x2="501" y1="246.9531" y2="256.9531"/><line style="stroke: #A80036; stroke-width: 1.0;" x1="511" x2="501" y1="256.9531" y2="256.9531"/><text fill="#000000" font-family="Migu 1M" font-size="13" lengthAdjust="spacingAndGlyphs" textLength="234" x="262" y="263.3801">ヒットしたものをリストで返します。プ</text><line style="stroke: #A80036; stroke-width: 2.0;" x1="237" x2="255" y1="257.9531" y2="275.9531"/><line style="stroke: #A80036; stroke-width: 2.0;" x1="237" x2="255" y1="275.9531" y2="257.9531"/><polygon fill="#A80036" points="302.5,296.3667,312.5,300.3667,302.5,304.3667,306.5,300.3667" style="stroke: #A80036; stroke-width: 1.0;"/><line style="stroke: #A80036; stroke-width: 1.0;" x1="125.5" x2="308.5" y1="300.3667" y2="300.3667"/><text fill="#000000" font-family="Migu 1M" font-size="13" lengthAdjust="spacingAndGlyphs" textLength="92" x="132.5" y="295.7937">表示(検索結果)</text><rect fill="none" height="57.8272" style="stroke: #000000; stroke-width: 2.0;" width="167" x="279.5" y="345.7803"/><polygon fill="#EEEEEE" points="279.5,345.7803,352.5,345.7803,352.5,351.7803,342.5,361.7803,279.5,361.7803,279.5,345.7803" style="stroke: #000000; stroke-width: 2.0;"/><text fill="#000000" font-family="Migu 1M" font-size="13" font-weight="bold" lengthAdjust="spacingAndGlyphs" textLength="28" x="294.5" y="358.2073">loop</text><text fill="#000000" font-family="Migu 1M" font-size="11" font-weight="bold" lengthAdjust="spacingAndGlyphs" textLength="74" x="367.5" y="357.4482">[1, データ数]</text><line style="stroke: #A80036; stroke-width: 1.0;" x1="324.5" x2="366.5" y1="382.6075" y2="382.6075"/><line style="stroke: #A80036; stroke-width: 1.0;" x1="366.5" x2="366.5" y1="382.6075" y2="395.6075"/><line style="stroke: #A80036; stroke-width: 1.0;" x1="325.5" x2="366.5" y1="395.6075" y2="395.6075"/><polygon fill="#A80036" points="335.5,391.6075,325.5,395.6075,335.5,399.6075,331.5,395.6075" style="stroke: #A80036; stroke-width: 1.0;"/><text fill="#000000" font-family="Migu 1M" font-size="13" lengthAdjust="spacingAndGlyphs" textLength="78" x="331.5" y="377.6209">データの表示</text><polygon fill="#A80036" points="50,412.6075,40,416.6075,50,420.6075,46,416.6075" style="stroke: #A80036; stroke-width: 1.0;"/><line style="stroke: #A80036; stroke-width: 1.0; stroke-dasharray: 2.0,2.0;" x1="44" x2="318.5" y1="416.6075" y2="416.6075"/><!--
@startuml{plantuml_seq_sample.png}
skinparam {
  defaultFontName "Migu 1M"
}

title シーケンス図のサンプル
hide footbox

actor ユーザー as user
participant 制御部 as control <<Control>>
participant "<u>Loader</u>" as model <<Model>>
participant 画面 as view <<View>> #98FB98

user -> control : 検索
activate control
create model
control -> model : << new >>
control -> model : データ検索
activate model
control <- - model : 検索結果
note right : ヒットしたものをリストで返します。プ
deactivate model
destroy model

control -> view : 表示(検索結果)
activate view
deactivate control
loop 1, データ数
  view -> view : データの表示
end
view - -> user
deactivate view

@enduml

PlantUML version 1.2017.15(Tue Jul 04 01:45:34 JST 2017)
(APACHE source distribution)
Java Runtime: Java(TM) SE Runtime Environment
JVM: Java HotSpot(TM) 64-Bit Server VM
Java Version: 1.8.0_144-b01
Operating System: Windows 10
OS Version: 10.0
Default Encoding: MS932
Language: ja
Country: JP
--></g></svg>