<?xml version="1.0" encoding="UTF-8" standalone="no"?>
<!DOCTYPE svg PUBLIC "-//W3C//DTD SVG 1.1//EN"
 "http://www.w3.org/Graphics/SVG/1.1/DTD/svg11.dtd">
<!-- Generated by graphviz version 2.38.0 (20140413.2041)
 -->
<!-- Title: G Pages: 1 -->
<svg width="348pt" height="260pt"
 viewBox="0.00 0.00 347.99 260.00" xmlns="http://www.w3.org/2000/svg" xmlns:xlink="http://www.w3.org/1999/xlink">
<g id="graph0" class="graph" transform="scale(1 1) rotate(0) translate(4 256)">
<title>G</title>
<polygon fill="white" stroke="none" points="-4,4 -4,-256 343.991,-256 343.991,4 -4,4"/>
<!-- mainメインプ00 -->
<g id="node1" class="node"><title>mainメインプ00</title>
<ellipse fill="none" stroke="black" cx="180.644" cy="-234" rx="79.8859" ry="18"/>
<text text-anchor="middle" x="180.644" y="-230.3" font-family="MigMix 1p" font-size="14.00">mainメインプ00</text>
</g>
<!-- parse -->
<g id="node2" class="node"><title>parse</title>
<ellipse fill="none" stroke="black" cx="132.644" cy="-162" rx="34.394" ry="18"/>
<text text-anchor="middle" x="132.644" y="-158.3" font-family="MigMix 1p" font-size="14.00">parse</text>
</g>
<!-- mainメインプ00&#45;&gt;parse -->
<g id="edge1" class="edge"><title>mainメインプ00&#45;&gt;parse</title>
<path fill="none" stroke="black" d="M169.025,-216.055C163.162,-207.505 155.941,-196.975 149.483,-187.556"/>
<polygon fill="black" stroke="black" points="152.368,-185.575 143.826,-179.307 146.595,-189.534 152.368,-185.575"/>
</g>
<!-- init -->
<g id="node4" class="node"><title>init</title>
<ellipse fill="none" stroke="black" cx="67.6442" cy="-90" rx="27" ry="18"/>
<text text-anchor="middle" x="67.6442" y="-86.3" font-family="MigMix 1p" font-size="14.00">init</text>
</g>
<!-- mainメインプ00&#45;&gt;init -->
<g id="edge3" class="edge"><title>mainメインプ00&#45;&gt;init</title>
<path fill="none" stroke="black" d="M140.635,-218.235C122.578,-209.663 102.468,-197.121 89.6442,-180 76.2614,-162.133 70.9391,-137.129 68.8621,-118.172"/>
<polygon fill="black" stroke="black" points="72.3381,-117.741 67.9945,-108.077 65.3638,-118.34 72.3381,-117.741"/>
</g>
<!-- cleanup -->
<g id="node5" class="node"><title>cleanup</title>
<ellipse fill="none" stroke="black" cx="229.644" cy="-162" rx="44.393" ry="18"/>
<text text-anchor="middle" x="229.644" y="-158.3" font-family="MigMix 1p" font-size="14.00">cleanup</text>
</g>
<!-- mainメインプ00&#45;&gt;cleanup -->
<g id="edge4" class="edge"><title>mainメインプ00&#45;&gt;cleanup</title>
<path fill="none" stroke="black" d="M192.506,-216.055C198.344,-207.715 205.501,-197.491 211.968,-188.252"/>
<polygon fill="black" stroke="black" points="215.025,-189.988 217.892,-179.789 209.29,-185.974 215.025,-189.988"/>
</g>
<!-- printf -->
<g id="node7" class="node"><title>printf</title>
<ellipse fill="none" stroke="black" cx="301.644" cy="-18" rx="38.1938" ry="18"/>
<text text-anchor="middle" x="301.644" y="-14.3" font-family="MigMix 1p" font-size="14.00">printf</text>
</g>
<!-- mainメインプ00&#45;&gt;printf -->
<g id="edge8" class="edge"><title>mainメインプ00&#45;&gt;printf</title>
<path fill="none" stroke="black" d="M228.043,-219.447C248.072,-211.275 269.714,-198.718 282.644,-180 310.215,-140.089 309.274,-80.9448 305.715,-46.5536"/>
<polygon fill="black" stroke="black" points="309.154,-45.8312 304.501,-36.3131 302.203,-46.6557 309.154,-45.8312"/>
</g>
<!-- execute -->
<g id="node3" class="node"><title>execute</title>
<ellipse fill="none" stroke="black" cx="176.644" cy="-90" rx="46.2923" ry="18"/>
<text text-anchor="middle" x="176.644" y="-86.3" font-family="MigMix 1p" font-size="14.00">execute</text>
</g>
<!-- parse&#45;&gt;execute -->
<g id="edge2" class="edge"><title>parse&#45;&gt;execute</title>
<path fill="none" stroke="black" d="M142.849,-144.765C148.159,-136.317 154.77,-125.799 160.734,-116.312"/>
<polygon fill="black" stroke="black" points="163.83,-117.962 166.189,-107.633 157.904,-114.237 163.83,-117.962"/>
</g>
<!-- make_string -->
<g id="node6" class="node"><title>make_string</title>
<ellipse fill="none" stroke="black" cx="65.6442" cy="-18" rx="65.7887" ry="18"/>
<text text-anchor="middle" x="65.6442" y="-14.3" font-family="MigMix 1p" font-size="14.00">make_string</text>
</g>
<!-- execute&#45;&gt;make_string -->
<g id="edge5" class="edge"><title>execute&#45;&gt;make_string</title>
<path fill="none" stroke="black" d="M153.375,-74.3257C137.784,-64.4936 117,-51.3865 99.575,-40.3978"/>
<polygon fill="black" stroke="black" points="101.14,-37.2469 90.8144,-34.8731 97.406,-43.1679 101.14,-37.2469"/>
</g>
<!-- execute&#45;&gt;printf -->
<g id="edge6" class="edge"><title>execute&#45;&gt;printf</title>
<path fill="none" stroke="black" d="M201.94,-74.8345C221.204,-64.0465 247.883,-49.1065 268.796,-37.3952"/>
<polygon fill="black" stroke="black" points="270.644,-40.3718 277.658,-32.432 267.223,-34.2643 270.644,-40.3718"/>
</g>
<!-- compare -->
<g id="node8" class="node"><title>compare</title>
<ellipse fill="none" stroke="black" cx="197.644" cy="-18" rx="48.1917" ry="18"/>
<text text-anchor="middle" x="197.644" y="-14.3" font-family="MigMix 1p" font-size="14.00">compare</text>
</g>
<!-- execute&#45;&gt;compare -->
<g id="edge9" class="edge"><title>execute&#45;&gt;compare</title>
<path fill="none" stroke="black" d="M181.728,-72.055C184.066,-64.2609 186.898,-54.8219 189.521,-46.0789"/>
<polygon fill="black" stroke="black" points="192.94,-46.8593 192.462,-36.2753 186.236,-44.8478 192.94,-46.8593"/>
</g>
<!-- init&#45;&gt;make_string -->
<g id="edge7" class="edge"><title>init&#45;&gt;make_string</title>
<path fill="none" stroke="black" d="M67.1498,-71.6966C66.9294,-63.9827 66.6645,-54.7125 66.4188,-46.1124"/>
<polygon fill="black" stroke="black" points="69.9171,-46.0003 66.1329,-36.1043 62.92,-46.2002 69.9171,-46.0003"/>
</g>
</g>
</svg>
