<?xml version="1.0" encoding="UTF-8" standalone="no"?><svg xmlns="http://www.w3.org/2000/svg" xmlns:xlink="http://www.w3.org/1999/xlink" contentScriptType="application/ecmascript" contentStyleType="text/css" height="199px" preserveAspectRatio="none" style="width:214px;height:199px;" version="1.1" viewBox="0 0 214 199" width="214px" zoomAndPan="magnify"><defs><filter height="300%" id="ffrdrm15dqscv" width="300%" x="-1" y="-1"><feGaussianBlur result="blurOut" stdDeviation="2.0"/><feColorMatrix in="blurOut" result="blurOut2" type="matrix" values="0 0 0 0 0 0 0 0 0 0 0 0 0 0 0 0 0 0 .4 0"/><feOffset dx="4.0" dy="4.0" in="blurOut2" result="blurOut3"/><feBlend in="SourceGraphic" in2="blurOut3" mode="normal"/></filter></defs><g><!--class クラスAプ--><rect fill="#FEFECE" filter="url(#ffrdrm15dqscv)" height="60.1948" id="クラスAプ" style="stroke: #A80036; stroke-width: 1.5;" width="88" x="64" y="8"/><ellipse cx="79.9" cy="24" fill="#ADD1B2" rx="11" ry="11" style="stroke: #A80036; stroke-width: 1.0;"/><path d="M82.6031,29.4375 Q81.6813,30.3594 79.4156,30.3594 Q78.15,30.3594 77.2281,29.4375 Q75.5719,27.7813 75.5719,24.25 Q75.5719,20.1406 77.3531,18.3438 Q78.2906,17.4219 79.4781,17.4219 Q81.7438,17.4219 82.4781,18.1406 Q83.8688,19.5469 83.8063,21.9375 L81.3375,21.9375 Q81.275,19.8125 80.5406,19.0781 Q80.15,18.6719 79.4781,18.6719 Q79.4781,18.6719 79.4156,19.1406 Q78.0875,20.4688 78.0875,24.125 Q78.0875,27.3125 79.2281,28.4375 Q79.7594,28.9688 79.7594,28.9688 Q80.0094,28.9688 80.5406,28.4375 Q81.2125,27.7813 81.275,25.3906 L83.8688,25.3906 Q83.6656,28.375 82.6031,29.4375 Z "/><text fill="#000000" font-family="Migu 1M" font-size="12" lengthAdjust="spacingAndGlyphs" textLength="54" x="94.1" y="27.8979">クラスAプ</text><line style="stroke: #A80036; stroke-width: 1.5;" x1="65" x2="151" y1="40" y2="40"/><line style="stroke: #A80036; stroke-width: 1.5;" x1="65" x2="151" y1="48" y2="48"/><ellipse cx="75" cy="59.5974" fill="#84BE84" rx="3" ry="3" style="stroke: #038048; stroke-width: 1.0;"/><text fill="#000000" font-family="Migu 1M" font-size="11" lengthAdjust="spacingAndGlyphs" textLength="62" x="84" y="61.668">メソッド1()</text><!--class クラスBプ--><rect fill="#FEFECE" filter="url(#ffrdrm15dqscv)" height="60.1948" id="クラスBプ" style="stroke: #A80036; stroke-width: 1.5;" width="88" x="6" y="128"/><ellipse cx="21.9" cy="144" fill="#ADD1B2" rx="11" ry="11" style="stroke: #A80036; stroke-width: 1.0;"/><path d="M24.6031,149.4375 Q23.6813,150.3594 21.4156,150.3594 Q20.15,150.3594 19.2281,149.4375 Q17.5719,147.7813 17.5719,144.25 Q17.5719,140.1406 19.3531,138.3438 Q20.2906,137.4219 21.4781,137.4219 Q23.7438,137.4219 24.4781,138.1406 Q25.8688,139.5469 25.8063,141.9375 L23.3375,141.9375 Q23.275,139.8125 22.5406,139.0781 Q22.15,138.6719 21.4781,138.6719 Q21.4781,138.6719 21.4156,139.1406 Q20.0875,140.4688 20.0875,144.125 Q20.0875,147.3125 21.2281,148.4375 Q21.7594,148.9688 21.7594,148.9688 Q22.0094,148.9688 22.5406,148.4375 Q23.2125,147.7813 23.275,145.3906 L25.8688,145.3906 Q25.6656,148.375 24.6031,149.4375 Z "/><text fill="#000000" font-family="Migu 1M" font-size="12" lengthAdjust="spacingAndGlyphs" textLength="54" x="36.1" y="147.8979">クラスBプ</text><line style="stroke: #A80036; stroke-width: 1.5;" x1="7" x2="93" y1="160" y2="160"/><line style="stroke: #A80036; stroke-width: 1.5;" x1="7" x2="93" y1="168" y2="168"/><ellipse cx="17" cy="179.5974" fill="#84BE84" rx="3" ry="3" style="stroke: #038048; stroke-width: 1.0;"/><text fill="#000000" font-family="Migu 1M" font-size="11" lengthAdjust="spacingAndGlyphs" textLength="62" x="26" y="181.668">メソッド2()</text><!--class クラスC--><rect fill="#FEFECE" filter="url(#ffrdrm15dqscv)" height="48" id="クラスC" style="stroke: #A80036; stroke-width: 1.5;" width="74" x="129" y="134"/><ellipse cx="144" cy="150" fill="#ADD1B2" rx="11" ry="11" style="stroke: #A80036; stroke-width: 1.0;"/><path d="M146.7031,155.4375 Q145.7813,156.3594 143.5156,156.3594 Q142.25,156.3594 141.3281,155.4375 Q139.6719,153.7813 139.6719,150.25 Q139.6719,146.1406 141.4531,144.3438 Q142.3906,143.4219 143.5781,143.4219 Q145.8438,143.4219 146.5781,144.1406 Q147.9688,145.5469 147.9063,147.9375 L145.4375,147.9375 Q145.375,145.8125 144.6406,145.0781 Q144.25,144.6719 143.5781,144.6719 Q143.5781,144.6719 143.5156,145.1406 Q142.1875,146.4688 142.1875,150.125 Q142.1875,153.3125 143.3281,154.4375 Q143.8594,154.9688 143.8594,154.9688 Q144.1094,154.9688 144.6406,154.4375 Q145.3125,153.7813 145.375,151.3906 L147.9688,151.3906 Q147.7656,154.375 146.7031,155.4375 Z "/><text fill="#000000" font-family="Migu 1M" font-size="12" lengthAdjust="spacingAndGlyphs" textLength="42" x="158" y="153.8979">クラスC</text><line style="stroke: #A80036; stroke-width: 1.5;" x1="130" x2="202" y1="166" y2="166"/><line style="stroke: #A80036; stroke-width: 1.5;" x1="130" x2="202" y1="174" y2="174"/><!--link クラスAプ to クラスBプ--><path d="M93.6629,68.169 C84.7397,86.323 73.3031,109.5902 64.3732,127.758 " fill="none" id="クラスAプ-クラスBプ" style="stroke: #A80036; stroke-width: 1.0;"/><!--link クラスAプ to クラスC--><path d="M131.169,86.138 C139.208,102.4924 147.87,120.1155 154.545,133.6958 " fill="none" id="クラスAプ-クラスC" style="stroke: #A80036; stroke-width: 1.0;"/><polygon fill="none" points="124.877,89.2054,122.337,68.169,137.442,83.03,124.877,89.2054" style="stroke: #A80036; stroke-width: 1.0;"/><!--
@startuml
skinparam {
  defaultFontName "Migu 1M"
}

class "クラスAプ" {
  +メソッド1()
}
class "クラスBプ" {
  +メソッド2()
}
class "クラスC" {
}
"クラスAプ" - - "クラスBプ"
"クラスAプ" <|- - "クラスC"
@enduml

PlantUML version 1.2017.15(Tue Jul 04 01:45:34 JST 2017)
(APACHE source distribution)
Java Runtime: Java(TM) SE Runtime Environment
JVM: Java HotSpot(TM) 64-Bit Server VM
Java Version: 1.8.0_144-b01
Operating System: Windows 10
OS Version: 10.0
Default Encoding: MS932
Language: ja
Country: JP
--></g></svg>