<?xml version="1.0" encoding="UTF-8" standalone="no"?><svg xmlns="http://www.w3.org/2000/svg" xmlns:xlink="http://www.w3.org/1999/xlink" contentScriptType="application/ecmascript" contentStyleType="text/css" height="207px" preserveAspectRatio="none" style="width:285px;height:207px;" version="1.1" viewBox="0 0 285 207" width="285px" zoomAndPan="magnify"><defs><filter height="300%" id="fki94xpk36gps" width="300%" x="-1" y="-1"><feGaussianBlur result="blurOut" stdDeviation="2.0"/><feColorMatrix in="blurOut" result="blurOut2" type="matrix" values="0 0 0 0 0 0 0 0 0 0 0 0 0 0 0 0 0 0 .4 0"/><feOffset dx="4.0" dy="4.0" in="blurOut2" result="blurOut3"/><feBlend in="SourceGraphic" in2="blurOut3" mode="normal"/></filter></defs><g><!--class クラスAプ--><rect fill="#FEFECE" filter="url(#fki94xpk36gps)" height="64.3147" id="クラスAプ" style="stroke: #A80036; stroke-width: 1.5;" width="88" x="6" y="8"/><ellipse cx="21" cy="24" fill="#ADD1B2" rx="11" ry="11" style="stroke: #A80036; stroke-width: 1.0;"/><path d="M23.7031,29.4375 Q22.7813,30.3594 20.5156,30.3594 Q19.25,30.3594 18.3281,29.4375 Q16.6719,27.7813 16.6719,24.25 Q16.6719,20.1406 18.4531,18.3438 Q19.3906,17.4219 20.5781,17.4219 Q22.8438,17.4219 23.5781,18.1406 Q24.9688,19.5469 24.9063,21.9375 L22.4375,21.9375 Q22.375,19.8125 21.6406,19.0781 Q21.25,18.6719 20.5781,18.6719 Q20.5781,18.6719 20.5156,19.1406 Q19.1875,20.4688 19.1875,24.125 Q19.1875,27.3125 20.3281,28.4375 Q20.8594,28.9688 20.8594,28.9688 Q21.1094,28.9688 21.6406,28.4375 Q22.3125,27.7813 22.375,25.3906 L24.9688,25.3906 Q24.7656,28.375 23.7031,29.4375 Z "/><text fill="#000000" font-family="mplus-1c-regular" font-size="12" lengthAdjust="spacingAndGlyphs" textLength="56" x="35" y="29.6069">クラスAプ</text><line style="stroke: #A80036; stroke-width: 1.5;" x1="7" x2="93" y1="40" y2="40"/><line style="stroke: #A80036; stroke-width: 1.5;" x1="7" x2="93" y1="48" y2="48"/><ellipse cx="17" cy="61.6573" fill="#84BE84" rx="3" ry="3" style="stroke: #038048; stroke-width: 1.0;"/><text fill="#000000" font-family="mplus-1c-regular" font-size="11" lengthAdjust="spacingAndGlyphs" textLength="59" x="26" y="65.2935">メソッド1()</text><!--class クラスB00--><rect fill="#FEFECE" filter="url(#fki94xpk36gps)" height="64.3147" id="クラスB00" style="stroke: #A80036; stroke-width: 1.5;" width="89" x="75.5" y="132"/><ellipse cx="90.5" cy="148" fill="#ADD1B2" rx="11" ry="11" style="stroke: #A80036; stroke-width: 1.0;"/><path d="M93.2031,153.4375 Q92.2813,154.3594 90.0156,154.3594 Q88.75,154.3594 87.8281,153.4375 Q86.1719,151.7813 86.1719,148.25 Q86.1719,144.1406 87.9531,142.3438 Q88.8906,141.4219 90.0781,141.4219 Q92.3438,141.4219 93.0781,142.1406 Q94.4688,143.5469 94.4063,145.9375 L91.9375,145.9375 Q91.875,143.8125 91.1406,143.0781 Q90.75,142.6719 90.0781,142.6719 Q90.0781,142.6719 90.0156,143.1406 Q88.6875,144.4688 88.6875,148.125 Q88.6875,151.3125 89.8281,152.4375 Q90.3594,152.9688 90.3594,152.9688 Q90.6094,152.9688 91.1406,152.4375 Q91.8125,151.7813 91.875,149.3906 L94.4688,149.3906 Q94.2656,152.375 93.2031,153.4375 Z "/><text fill="#000000" font-family="mplus-1c-regular" font-size="12" lengthAdjust="spacingAndGlyphs" textLength="57" x="104.5" y="153.6069">クラスB00</text><line style="stroke: #A80036; stroke-width: 1.5;" x1="76.5" x2="163.5" y1="164" y2="164"/><line style="stroke: #A80036; stroke-width: 1.5;" x1="76.5" x2="163.5" y1="172" y2="172"/><ellipse cx="86.5" cy="185.6573" fill="#84BE84" rx="3" ry="3" style="stroke: #038048; stroke-width: 1.0;"/><text fill="#000000" font-family="mplus-1c-regular" font-size="11" lengthAdjust="spacingAndGlyphs" textLength="59" x="95.5" y="189.2935">メソッド2()</text><!--class クラスC--><rect fill="#FEFECE" filter="url(#fki94xpk36gps)" height="48" id="クラスC" style="stroke: #A80036; stroke-width: 1.5;" width="75" x="199.5" y="140"/><ellipse cx="214.5" cy="156" fill="#ADD1B2" rx="11" ry="11" style="stroke: #A80036; stroke-width: 1.0;"/><path d="M217.2031,161.4375 Q216.2813,162.3594 214.0156,162.3594 Q212.75,162.3594 211.8281,161.4375 Q210.1719,159.7813 210.1719,156.25 Q210.1719,152.1406 211.9531,150.3438 Q212.8906,149.4219 214.0781,149.4219 Q216.3438,149.4219 217.0781,150.1406 Q218.4688,151.5469 218.4063,153.9375 L215.9375,153.9375 Q215.875,151.8125 215.1406,151.0781 Q214.75,150.6719 214.0781,150.6719 Q214.0781,150.6719 214.0156,151.1406 Q212.6875,152.4688 212.6875,156.125 Q212.6875,159.3125 213.8281,160.4375 Q214.3594,160.9688 214.3594,160.9688 Q214.6094,160.9688 215.1406,160.4375 Q215.8125,159.7813 215.875,157.3906 L218.4688,157.3906 Q218.2656,160.375 217.2031,161.4375 Z "/><text fill="#000000" font-family="mplus-1c-regular" font-size="12" lengthAdjust="spacingAndGlyphs" textLength="43" x="228.5" y="161.6069">クラスC</text><line style="stroke: #A80036; stroke-width: 1.5;" x1="200.5" x2="273.5" y1="172" y2="172"/><line style="stroke: #A80036; stroke-width: 1.5;" x1="200.5" x2="273.5" y1="180" y2="180"/><!--class クラスAプパ--><rect fill="#FEFECE" filter="url(#fki94xpk36gps)" height="48" id="クラスAプパ" style="stroke: #A80036; stroke-width: 1.5;" width="100" x="129" y="16"/><ellipse cx="144" cy="32" fill="#ADD1B2" rx="11" ry="11" style="stroke: #A80036; stroke-width: 1.0;"/><path d="M146.7031,37.4375 Q145.7813,38.3594 143.5156,38.3594 Q142.25,38.3594 141.3281,37.4375 Q139.6719,35.7813 139.6719,32.25 Q139.6719,28.1406 141.4531,26.3438 Q142.3906,25.4219 143.5781,25.4219 Q145.8438,25.4219 146.5781,26.1406 Q147.9688,27.5469 147.9063,29.9375 L145.4375,29.9375 Q145.375,27.8125 144.6406,27.0781 Q144.25,26.6719 143.5781,26.6719 Q143.5781,26.6719 143.5156,27.1406 Q142.1875,28.4688 142.1875,32.125 Q142.1875,35.3125 143.3281,36.4375 Q143.8594,36.9688 143.8594,36.9688 Q144.1094,36.9688 144.6406,36.4375 Q145.3125,35.7813 145.375,33.3906 L147.9688,33.3906 Q147.7656,36.375 146.7031,37.4375 Z "/><text fill="#000000" font-family="mplus-1c-regular" font-size="12" lengthAdjust="spacingAndGlyphs" textLength="68" x="158" y="37.6069">クラスAプパ</text><line style="stroke: #A80036; stroke-width: 1.5;" x1="130" x2="228" y1="48" y2="48"/><line style="stroke: #A80036; stroke-width: 1.5;" x1="130" x2="228" y1="56" y2="56"/><!--link クラスAプパ to クラスB00--><path d="M167.764,64.234 C158.536,83.316 145.377,110.5251 135.207,131.5547 " fill="none" id="クラスAプパ-クラスB00" style="stroke: #A80036; stroke-width: 1.0;"/><!--link クラスAプパ to クラスC--><path d="M198.71,82.46 C207.824,101.629 218.305,123.6764 225.995,139.8521 " fill="none" id="クラスAプパ-クラスC" style="stroke: #A80036; stroke-width: 1.0;"/><polygon fill="none" points="192.311,85.303,190.046,64.234,204.955,79.292,192.311,85.303" style="stroke: #A80036; stroke-width: 1.0;"/><!--
@startuml
skinparam {
  defaultFontName "mplus-1c-regular"
}

class "クラスAプ" {
  +メソッド1()
}
class "クラスB00" {
  +メソッド2()
}
class "クラスC" {
}
"クラスAプパ" - - "クラスB00"
"クラスAプパ" <|- - "クラスC"
@enduml

PlantUML version 1.2017.15(Tue Jul 04 01:45:34 JST 2017)
(APACHE source distribution)
Java Runtime: Java(TM) SE Runtime Environment
JVM: Java HotSpot(TM) 64-Bit Server VM
Java Version: 1.8.0_151-b12
Operating System: Windows 10
OS Version: 10.0
Default Encoding: MS932
Language: ja
Country: JP
--></g></svg>